HIERARCHY
ROOT hip
{
  OFFSET 0.0 0.0 0.0
  CHANNELS 6 Xposition Yposition Zposition Zrotation Yrotation Xrotation
  JOINT abdomen
  {
    OFFSET 0.0 20.6881 -0.73152
    CHANNELS 3 Zrotation Xrotation Yrotation
    JOINT chest
    {
      OFFSET 0.0 11.7043 -0.48768
      CHANNELS 3 Zrotation Xrotation Yrotation
      JOINT neck
      {
        OFFSET 0.0 22.1894 -2.19456
        CHANNELS 3 Zrotation Xrotation Yrotation
        JOINT head
        {
          OFFSET -0.24384 7.07133 1.2192
          CHANNELS 3 Zrotation Xrotation Yrotation
          JOINT leftEye
          {
            OFFSET 4.14528 8.04674 8.04672
            CHANNELS 3 Zrotation Xrotation Yrotation
            End Site
            {
              OFFSET 1.0 0.0 0.0
            }
          }
          JOINT rightEye
          {
            OFFSET -3.6576 8.04674 8.04672
            CHANNELS 3 Zrotation Xrotation Yrotation
            End Site
            {
              OFFSET 1.0 0.0 0.0
            }
          }
        }
      }
      JOINT rCollar
      {
        OFFSET -2.68224 19.2634 -4.8768
        CHANNELS 3 Zrotation Xrotation Yrotation
        JOINT rShldr
        {
          OFFSET -8.77824 -1.95073 1.46304
          CHANNELS 3 Zrotation Xrotation Yrotation
          JOINT rForeArm
          {
            OFFSET -28.1742 -1.7115 0.48768
            CHANNELS 3 Zrotation Xrotation Yrotation
            JOINT rHand
            {
              OFFSET -22.5879 0.773209 7.07136
              CHANNELS 3 Zrotation Xrotation Yrotation
              JOINT rThumb1
              {
                OFFSET -1.2192 -0.487915 3.41376
                CHANNELS 3 Zrotation Xrotation Yrotation
                JOINT rThumb2
                {
                  OFFSET -3.37035 -0.52449 3.41376
                  CHANNELS 3 Zrotation Xrotation Yrotation
                  End Site
                  {
                    OFFSET -1.78271 -1.18214 1.43049
                  }
                }
              }
              JOINT rIndex1
              {
                OFFSET -7.75947 0.938293 5.60832
                CHANNELS 3 Zrotation Xrotation Yrotation
                JOINT rIndex2
                {
                  OFFSET -2.54057 -0.884171 1.56538
                  CHANNELS 3 Zrotation Xrotation Yrotation
                  End Site
                  {
                    OFFSET -1.62519 -0.234802 1.16502
                  }
                }
              }
              JOINT rMid1
              {
                OFFSET -8.24714 1.18213 3.41376
                CHANNELS 3 Zrotation Xrotation Yrotation
                JOINT rMid2
                {
                  OFFSET -3.10165 -0.590103 1.0647
                  CHANNELS 3 Zrotation Xrotation Yrotation
                  End Site
                  {
                    OFFSET -2.48547 -0.328903 0.83742
                  }
                }
              }
              JOINT rRing1
              {
                OFFSET -8.82822 0.546677 1.51678
                CHANNELS 3 Zrotation Xrotation Yrotation
                JOINT rRing2
                {
                  OFFSET -2.60934 -0.819778 -0.0198488
                  CHANNELS 3 Zrotation Xrotation Yrotation
                  End Site
                  {
                    OFFSET -2.33842 -0.294052 0.168128
                  }
                }
              }
              JOINT rPinky1
              {
                OFFSET -8.27202 -0.0477905 -0.4584
                CHANNELS 3 Zrotation Xrotation Yrotation
                JOINT rPinky2
                {
                  OFFSET -1.82734 -0.647385 -0.700984
                  CHANNELS 3 Zrotation Xrotation Yrotation
                  End Site
                  {
                    OFFSET -1.69225 -0.51767 -0.607171
                  }
                }
              }
            }
          }
        }
      }
      JOINT lCollar
      {
        OFFSET 2.68224 19.2634 -4.8768
        CHANNELS 3 Zrotation Xrotation Yrotation
        JOINT lShldr
        {
          OFFSET 8.77824 -1.95073 1.46304
          CHANNELS 3 Zrotation Xrotation Yrotation
          JOINT lForeArm
          {
            OFFSET 28.1742 -1.7115 0.48768
            CHANNELS 3 Zrotation Xrotation Yrotation
            JOINT lHand
            {
              OFFSET 22.5879 0.773209 7.07136
              CHANNELS 3 Zrotation Xrotation Yrotation
              JOINT lThumb1
              {
                OFFSET 1.2192 -0.487915 3.41376
                CHANNELS 3 Zrotation Xrotation Yrotation
                JOINT lThumb2
                {
                  OFFSET 3.37035 -0.52449 3.41376
                  CHANNELS 3 Zrotation Xrotation Yrotation
                  End Site
                  {
                    OFFSET 1.78271 -1.18214 1.43049
                  }
                }
              }
              JOINT lIndex1
              {
                OFFSET 7.75947 0.938293 5.60832
                CHANNELS 3 Zrotation Xrotation Yrotation
                JOINT lIndex2
                {
                  OFFSET 2.54057 -0.884171 1.56538
                  CHANNELS 3 Zrotation Xrotation Yrotation
                  End Site
                  {
                    OFFSET 1.62519 -0.234802 1.16502
                  }
                }
              }
              JOINT lMid1
              {
                OFFSET 8.24714 1.18213 3.41376
                CHANNELS 3 Zrotation Xrotation Yrotation
                JOINT lMid2
                {
                  OFFSET 3.10165 -0.590103 1.0647
                  CHANNELS 3 Zrotation Xrotation Yrotation
                  End Site
                  {
                    OFFSET 2.48547 -0.328903 0.83742
                  }
                }
              }
              JOINT lRing1
              {
                OFFSET 8.82822 0.546677 1.51678
                CHANNELS 3 Zrotation Xrotation Yrotation
                JOINT lRing2
                {
                  OFFSET 2.60934 -0.819778 -0.0198488
                  CHANNELS 3 Zrotation Xrotation Yrotation
                  End Site
                  {
                    OFFSET 2.33842 -0.294052 0.168128
                  }
                }
              }
              JOINT lPinky1
              {
                OFFSET 8.27202 -0.0477905 -0.4584
                CHANNELS 3 Zrotation Xrotation Yrotation
                JOINT lPinky2
                {
                  OFFSET 1.82734 -0.647385 -0.700984
                  CHANNELS 3 Zrotation Xrotation Yrotation
                  End Site
                  {
                    OFFSET 1.69225 -0.51767 -0.607171
                  }
                }
              }
            }
          }
        }
      }
    }
  }
  JOINT rButtock
  {
    OFFSET -8.77824 4.35084 1.2192
    CHANNELS 3 Zrotation Xrotation Yrotation
    JOINT rThigh
    {
      OFFSET 0.0 -1.70687 -2.19456
      CHANNELS 3 Zrotation Xrotation Yrotation
      JOINT rShin
      {
        OFFSET 0.0 -36.8199 0.73152
        CHANNELS 3 Zrotation Xrotation Yrotation
        JOINT rFoot
        {
          OFFSET 0.73152 -45.1104 -5.12064
          CHANNELS 3 Zrotation Xrotation Yrotation
          End Site
          {
            OFFSET -1.1221 -3.69964 12.103
          }
        }
      }
    }
  }
  JOINT lButtock
  {
    OFFSET 8.77824 4.35084 1.2192
    CHANNELS 3 Zrotation Xrotation Yrotation
    JOINT lThigh
    {
      OFFSET 0.0 -1.70687 -2.19456
      CHANNELS 3 Zrotation Xrotation Yrotation
      JOINT lShin
      {
        OFFSET 0.0 -36.8199 0.73152
        CHANNELS 3 Zrotation Xrotation Yrotation
        JOINT lFoot
        {
          OFFSET -0.73152 -45.1104 -5.12064
          CHANNELS 3 Zrotation Xrotation Yrotation
          End Site
          {
            OFFSET 1.1221 -3.69964 12.103
          }
        }
      }
    }
  }
}
MOTION
Frames: 4
Frame Time: 0.00833333
0.0 83.0814 0.0 -133.261 82.8749 -111.316 9.95125 -1.29086 6.3514 1.4155 -24.8363 2.69771 -2.82792 -1.93471 -2.97811 -6.04832 11.4825 -3.14147 -0.0 0.0 0.0 -0.0 0.0 0.0 1.64416e-13 2.54428e-12 -2.1237e-13 79.2958 47.709 -27.3054 -24.4505 -19.9463 51.1547 -0.0725111 -7.37032 -1.04203 -3.88581e-11 1.54545e-10 7.05326e-10 -7.27049e-11 2.672e-10 1.21684e-09 -3.88568e-11 1.54545e-10 7.0532e-10 7.73091 5.47488 0.417314 -3.88589e-11 1.54546e-10 7.05327e-10 2.90554 0.965183 0.102902 -3.8852e-11 1.54547e-10 7.05326e-10 10.2786 0.731801 0.0259123 -3.88595e-11 1.54548e-10 7.05333e-10 2.22167 -0.733487 -0.20892 1.64509e-13 2.54429e-12 -2.12528e-13 -100.572 33.986 53.6095 26.6442 -25.2152 -59.6299 0.0315462 -5.05298 0.71201 -1.47671e-09 -3.32116e-10 -2.10779e-10 -2.5496e-09 -5.7758e-10 -3.70291e-10 -1.47671e-09 -3.32113e-10 -2.10767e-10 -7.73091 5.47488 -0.417314 -1.47671e-09 -3.32114e-10 -2.10782e-10 -2.90554 0.965183 -0.102902 -1.47671e-09 -3.32113e-10 -2.10779e-10 -10.2786 0.731801 -0.0259123 -1.47671e-09 -3.32112e-10 -2.10789e-10 -2.22167 -0.733487 0.20892 -2.03217e-16 0.0 -3.88251e-19 18.373 -4.60664 1.36966 0.236427 25.7578 1.0234 10.3116 16.1918 -34.2497 2.03217e-16 0.0 3.88251e-19 -5.52436 -45.1335 -15.2915 -0.0661718 24.3294 -2.1838 -1.8265 5.0483 14.9858
3.8629999999999995 82.4735 0.03829999999999956 -128.378 82.3663 -107.09 10.0061 -1.6391 5.8117 1.3932 -24.6309 2.54328 -2.28868 -1.98529 -2.76566 -5.6879 11.9825 -2.88387 -0.0 0.0 0.0 -0.0 0.0 0.0 1.12857e-13 2.09609e-12 -1.95505e-13 82.2292 48.5243 -30.2278 -24.0397 -19.1716 49.7355 -0.0648421 -7.2466 -1.02396 -1.44849e-10 5.18023e-10 2.36675e-09 -2.66447e-10 8.951e-10 4.08609e-09 -1.44848e-10 5.18026e-10 2.36675e-09 7.73091 5.47488 0.417314 -1.4485e-10 5.18026e-10 2.36675e-09 2.90554 0.965183 0.102902 -1.44841e-10 5.18027e-10 2.36675e-09 10.2786 0.731801 0.0259123 -1.4485e-10 5.18028e-10 2.36676e-09 2.22167 -0.733487 -0.20892 1.1297e-13 2.09609e-12 -1.95654e-13 -99.7131 35.3679 51.6572 26.6404 -25.2037 -59.6087 0.0256452 -4.56662 0.643173 -1.56904e-09 -7.07289e-10 -8.47246e-10 -2.70544e-09 -1.22618e-09 -1.46938e-09 -1.56904e-09 -7.07281e-10 -8.47233e-10 -7.73091 5.47488 -0.417314 -1.56904e-09 -7.07286e-10 -8.47246e-10 -2.90554 0.965183 -0.102902 -1.56904e-09 -7.07286e-10 -8.47245e-10 -10.2786 0.731801 -0.0259123 -1.56904e-09 -7.07284e-10 -8.47255e-10 -2.22167 -0.733487 0.20892 -2.03217e-16 0.0 -3.88251e-19 17.6974 -5.29803 -1.47946 0.227388 29.8498 1.03918 11.6104 20.0634 -32.8909 2.03217e-16 0.0 3.88251e-19 -4.95831 -42.4825 -13.7039 -0.0527932 24.337 -2.12112 -1.33807 3.3508 13.3316
7.649000000000001 81.6318 -0.05960000000000143 -123.221 82.171 -102.988 9.46422 -1.00136 4.93767 1.62491 -24.5695 2.33477 -1.59757 -1.9186 -2.33194 -5.74605 11.8364 -2.27546 -0.0 0.0 0.0 -0.0 0.0 0.0 7.33472e-14 1.49654e-12 -1.52965e-13 84.5577 48.9641 -32.4993 -23.4942 -18.2183 47.8518 -0.0215592 -5.54344 -0.780436 5.94558e-12 6.90864e-10 2.6473e-09 -6.6292e-12 1.19372e-09 4.57034e-09 5.94635e-12 6.90868e-10 2.64729e-09 7.73091 5.47488 0.417314 5.94464e-12 6.90867e-10 2.6473e-09 2.90554 0.965183 0.102902 5.95286e-12 6.90868e-10 2.6473e-09 10.2786 0.731801 0.0259123 5.9451e-12 6.90869e-10 2.6473e-09 2.22167 -0.733487 -0.20892 7.34586e-14 1.49653e-12 -1.53121e-13 -98.6595 36.1509 48.9758 26.6534 -25.247 -59.7101 0.022912 -4.30377 0.606021 -1.14522e-09 -1.00645e-09 -1.43653e-09 -1.97062e-09 -1.74308e-09 -2.48615e-09 -1.14522e-09 -1.00644e-09 -1.43652e-09 -7.73091 5.47488 -0.417314 -1.14522e-09 -1.00645e-09 -1.43653e-09 -2.90554 0.965183 -0.102902 -1.14522e-09 -1.00645e-09 -1.43653e-09 -10.2786 0.731801 -0.0259123 -1.14521e-09 -1.00645e-09 -1.43654e-09 -2.22167 -0.733487 0.20892 -2.03217e-16 0.0 -3.88251e-19 16.446 -5.91122 -3.59318 0.0991974 34.8773 1.07325 10.6016 21.611 -29.2432 2.03217e-16 0.0 3.88251e-19 -5.36523 -39.375 -13.0925 -0.0188703 24.7043 -1.93784 -0.562076 -0.0388874 12.4592
11.069100000000006 80.5475 -0.37460000000000093 -118.749 82.3956 -99.7493 8.64842 0.340179 3.81535 2.01998 -24.6029 2.07992 -0.798604 -1.83825 -1.72761 -6.03055 11.4286 -1.3733 -0.0 0.0 0.0 -0.0 0.0 0.0 3.48708e-14 7.25139e-13 -8.9481e-14 86.5003 49.2219 -34.3397 -22.7443 -16.9763 45.5595 0.0157174 -2.81236 -0.394232 3.11026e-10 7.70339e-10 2.18174e-09 5.25217e-10 1.33106e-09 3.76592e-09 3.11027e-10 7.70344e-10 2.18173e-09 7.73091 5.47488 0.417314 3.11026e-10 7.70343e-10 2.18174e-09 2.90554 0.965183 0.102902 3.11032e-10 7.70343e-10 2.18173e-09 10.2786 0.731801 0.0259123 3.11027e-10 7.70342e-10 2.18174e-09 2.22167 -0.733487 -0.20892 3.49671e-14 7.25138e-13 -8.96519e-14 -97.4721 36.4802 45.6323 26.6791 -25.3322 -59.9027 0.0206248 -4.0859 0.575232 -3.65928e-10 -1.29628e-09 -2.05868e-09 -6.22014e-10 -2.24362e-09 -3.55902e-09 -3.65933e-10 -1.29628e-09 -2.05866e-09 -7.73091 5.47488 -0.417314 -3.65929e-10 -1.29629e-09 -2.05867e-09 -2.90554 0.965183 -0.102902 -3.6593e-10 -1.29629e-09 -2.05867e-09 -10.2786 0.731801 -0.0259123 -3.6592e-10 -1.29629e-09 -2.05868e-09 -2.22167 -0.733487 0.20892 -2.03217e-16 0.0 -3.88251e-19 14.7265 -6.65839 -5.52916 -0.12063 40.8993 1.14549 8.02852 21.5288 -23.508 2.03217e-16 0.0 3.88251e-19 -6.28161 -35.9231 -12.8955 0.0248385 25.7513 -1.6676 0.445881 -4.73467 12.0719
